{"title":"House 1986 DVDRip Xvid BigPerm LKRG","uid":6567172,"size":828269649,"categoryP":"video","categoryS":"movies","magnet":"?xt=urn:btih:162a99c744dbc2db6c689b9c3efb1dc6e6940078&amp;dn=House+1986+DVDRip+Xvid+BigPerm+LKRG&amp;tr=udp%3A%2F%2Ftracker.openbittorrent.com%3A80&amp;tr=udp%3A%2F%2Fopen.demonii.com%3A1337&amp;tr=udp%3A%2F%2Ftracker.coppersurfer.tk%3A6969&amp;tr=udp%3A%2F%2Fexodus.desync.com%3A6969","seeders":0,"leechers":1,"uploader":".BONE.","files":2,"time":1311739969,"description":"\nPLOT\n\nRoger Cobb is a Vietnam vet. Whose career as a horror novelist has taken a turn for\nthe worse when his son Jimmy mysteriously disappears while visiting his aunt's house...\n &lt;a href=&quot;\nhttp://www.imdb.com/title/tt0091223/&quot; rel=&quot;nofollow&quot; target=&quot;_NEW&quot;&gt;\nhttp://www.imdb.com/title/tt0091223/&lt;/a&gt;\n\nEncoded By .......: BigPerm1828\nRuntime ..........: 1h 32mn\nFile Size ........: 790 MB\nResolution .......: 704x396\nIMDb URL .........: http://www.imdb.com/title/tt0091223/\nGenre ............: Comedy | Fantasy | Horror\nLanguage .........: English\nVideo\nID : 0\nFormat : MPEG-4 Visual\nFormat profile : Advanced Simple@L5\nFormat settings, BVOP : Yes\nFormat settings, QPel : No\nFormat settings, GMC : No warppoints\nFormat settings, Matrix : Default (H.263)\nCodec ID : XVID\nCodec ID/Hint : XviD\nDuration : 1h 32mn\nBit rate : 998 Kbps\nWidth : 704 pixels\nHeight : 396 pixels\nDisplay aspect ratio : 16:9\nFrame rate : 23.976 fps\nColor space : YUV\nChroma subsampling : 4:2:0\nBit depth : 8 bits\nScan type : Progressive\nCompression mode : Lossy\nBits/(Pixel*Frame) : 0.149\nStream size : 660 MiB (84%)\nWriting library : XviD 1.2.1 (UTC 2008-12-04)\n\nAudio\nID : 1\nFormat : AC-3\nFormat/Info : Audio Coding 3\nMode extension : CM (complete main)\nCodec ID : 2000\nDuration : 1h 32mn\nBit rate mode : Constant\nBit rate : 192 Kbps\nChannel(s) : 2 channels\nChannel positions : Front: L R\nSampling rate : 48.0 KHz\nBit depth : 16 bits\nCompression mode : Lossy\nVideo delay : 42ms\nStream size : 127 MiB (16%)\nAlignment : Split accross interleaves\nInterleave, duration : 500 ms (11.99 video frames)\nInterleave, preload duration : 500 ms\n &lt;a href=&quot;\nhttp://leetleech.org/images/06618920307421261982.png&quot; rel=&quot;nofollow&quot; target=&quot;_NEW&quot;&gt;\nhttp://leetleech.org/images/06618920307421261982.png&lt;/a&gt;\n &lt;a href=&quot;\nhttp://leetleech.org/images/22766285115129007457.png&quot; rel=&quot;nofollow&quot; target=&quot;_NEW&quot;&gt;\nhttp://leetleech.org/images/22766285115129007457.png&lt;/a&gt;\n &lt;a href=&quot;\nhttp://leetleech.org/images/18866499161056923830.png&quot; rel=&quot;nofollow&quot; target=&quot;_NEW&quot;&gt;\nhttp://leetleech.org/images/18866499161056923830.png&lt;/a&gt;\n &lt;a href=&quot;\nhttp://leetleech.org/images/77978548703460325430.png&quot; rel=&quot;nofollow&quot; target=&quot;_NEW&quot;&gt;\nhttp://leetleech.org/images/77978548703460325430.png&lt;/a&gt;\n &lt;a href=&quot;\nhttp://leetleech.org/images/30877610930504411098.png&quot; rel=&quot;nofollow&quot; target=&quot;_NEW&quot;&gt;\nhttp://leetleech.org/images/30877610930504411098.png&lt;/a&gt;\n &lt;a href=&quot;\nhttp://leetleech.org/images/99440841917340337013.png&quot; rel=&quot;nofollow&quot; target=&quot;_NEW&quot;&gt;\nhttp://leetleech.org/images/99440841917340337013.png&lt;/a&gt;\n &lt;a href=&quot;\nhttp://leetleech.org/images/72642814652587502297.png&quot; rel=&quot;nofollow&quot; target=&quot;_NEW&quot;&gt;\nhttp://leetleech.org/images/72642814652587502297.png&lt;/a&gt;","torrent":{"xt":"urn:btih:162a99c744dbc2db6c689b9c3efb1dc6e6940078","amp;dn":"House+1986+DVDRip+Xvid+BigPerm+LKRG","amp;tr":["udp%3A%2F%2Ftracker.openbittorrent.com%3A80","udp%3A%2F%2Fopen.demonii.com%3A1337","udp%3A%2F%2Ftracker.coppersurfer.tk%3A6969","udp%3A%2F%2Fexodus.desync.com%3A6969"],"infoHash":"162a99c744dbc2db6c689b9c3efb1dc6e6940078","infoHashBuffer":{"type":"Buffer","data":[22,42,153,199,68,219,194,219,108,104,155,156,62,251,29,198,230,148,0,120]},"announce":[],"urlList":[]}}